<svg width="15" height="16" viewBox="0 0 15 16" fill="none" xmlns="http://www.w3.org/2000/svg">
<g clip-path="url(#clip0_560_2789)">
<path d="M1.53906 1C0.985937 1 0.539062 1.44687 0.539062 2V5C0.539062 5.55312 0.985937 6 1.53906 6C2.09219 6 2.53906 5.55312 2.53906 5V3H4.53906C5.09219 3 5.53906 2.55313 5.53906 2C5.53906 1.44687 5.09219 1 4.53906 1H1.53906ZM2.53906 11C2.53906 10.4469 2.09219 10 1.53906 10C0.985937 10 0.539062 10.4469 0.539062 11V14C0.539062 14.5531 0.985937 15 1.53906 15H4.53906C5.09219 15 5.53906 14.5531 5.53906 14C5.53906 13.4469 5.09219 13 4.53906 13H2.53906V11ZM10.5391 1C9.98594 1 9.53906 1.44687 9.53906 2C9.53906 2.55313 9.98594 3 10.5391 3H12.5391V5C12.5391 5.55312 12.9859 6 13.5391 6C14.0922 6 14.5391 5.55312 14.5391 5V2C14.5391 1.44687 14.0922 1 13.5391 1H10.5391ZM14.5391 11C14.5391 10.4469 14.0922 10 13.5391 10C12.9859 10 12.5391 10.4469 12.5391 11V13H10.5391C9.98594 13 9.53906 13.4469 9.53906 14C9.53906 14.5531 9.98594 15 10.5391 15H13.5391C14.0922 15 14.5391 14.5531 14.5391 14V11Z" fill="#111827"/>
</g>
<defs>
<clipPath id="clip0_560_2789">
<path d="M0.539062 0H14.5391V16H0.539062V0Z" fill="white"/>
</clipPath>
</defs>
</svg>
