<svg width="18" height="21" viewBox="0 0 18 21" fill="none" xmlns="http://www.w3.org/2000/svg">
<g clip-path="url(#clip0_338_1477)">
<g clip-path="url(#clip1_338_1477)">
<path d="M5.9375 1.06982C5.9375 0.550293 5.51953 0.132324 5 0.132324C4.48047 0.132324 4.0625 0.550293 4.0625 1.06982V2.63232H2.5C1.12109 2.63232 0 3.75342 0 5.13232V5.75732V7.63232V17.6323C0 19.0112 1.12109 20.1323 2.5 20.1323H15C16.3789 20.1323 17.5 19.0112 17.5 17.6323V7.63232V5.75732V5.13232C17.5 3.75342 16.3789 2.63232 15 2.63232H13.4375V1.06982C13.4375 0.550293 13.0195 0.132324 12.5 0.132324C11.9805 0.132324 11.5625 0.550293 11.5625 1.06982V2.63232H5.9375V1.06982ZM1.875 7.63232H15.625V17.6323C15.625 17.9761 15.3438 18.2573 15 18.2573H2.5C2.15625 18.2573 1.875 17.9761 1.875 17.6323V7.63232Z" fill="black"/>
</g>
</g>
<defs>
<clipPath id="clip0_338_1477">
<rect width="17.5" height="20" fill="white" transform="translate(0 0.132324)"/>
</clipPath>
<clipPath id="clip1_338_1477">
<path d="M0 0.132324H17.5V20.1323H0V0.132324Z" fill="white"/>
</clipPath>
</defs>
</svg>
