<svg width="24" height="22" viewBox="0 0 24 22" fill="none" xmlns="http://www.w3.org/2000/svg">
<path d="M6.98906 2.0375L6.50156 3.5H3C1.34531 3.5 0 4.84531 0 6.5V18.5C0 20.1547 1.34531 21.5 3 21.5H21C22.6547 21.5 24 20.1547 24 18.5V6.5C24 4.84531 22.6547 3.5 21 3.5H17.4984L17.0109 2.0375C16.7062 1.11875 15.8484 0.5 14.8781 0.5H9.12188C8.15156 0.5 7.29375 1.11875 6.98906 2.0375ZM12 8C13.1935 8 14.3381 8.47411 15.182 9.31802C16.0259 10.1619 16.5 11.3065 16.5 12.5C16.5 13.6935 16.0259 14.8381 15.182 15.682C14.3381 16.5259 13.1935 17 12 17C10.8065 17 9.66193 16.5259 8.81802 15.682C7.97411 14.8381 7.5 13.6935 7.5 12.5C7.5 11.3065 7.97411 10.1619 8.81802 9.31802C9.66193 8.47411 10.8065 8 12 8Z" fill="#A1A1A1"/>
</svg>
