<svg width="15" height="15" viewBox="0 0 15 15" fill="none" xmlns="http://www.w3.org/2000/svg">
<g clip-path="url(#clip0_560_3416)">
<path d="M6.90977 1.06992C7.33633 0.643359 8.02812 0.643359 8.45742 1.06992L14.3637 6.97617C14.7902 7.40273 14.7902 8.09453 14.3637 8.52383L8.45742 14.4301C8.03086 14.8566 7.33906 14.8566 6.90977 14.4301L1.00352 8.52383C0.576953 8.09727 0.576953 7.40547 1.00352 6.97617L6.90977 1.06992ZM9.30508 4.81602C9.1793 4.69023 8.99062 4.65469 8.8293 4.72031C8.66797 4.78594 8.55859 4.94727 8.55859 5.125V6.65625H6.80859C5.84336 6.65625 5.05859 7.44102 5.05859 8.40625V9.71875C5.05859 10.0824 5.35117 10.375 5.71484 10.375C6.07852 10.375 6.37109 10.0824 6.37109 9.71875V8.40625C6.37109 8.16563 6.56797 7.96875 6.80859 7.96875H8.55859V9.5C8.55859 9.67773 8.66523 9.83633 8.8293 9.90469C8.99336 9.97305 9.18203 9.93476 9.30508 9.80898L11.4926 7.62148C11.6621 7.45195 11.6621 7.17305 11.4926 7.00352L9.30508 4.81602Z" fill="black"/>
</g>
<defs>
<clipPath id="clip0_560_3416">
<path d="M0.683594 0.75H14.6836V14.75H0.683594V0.75Z" fill="white"/>
</clipPath>
</defs>
</svg>
