<svg width="35" height="20" viewBox="0 0 35 20" fill="none" xmlns="http://www.w3.org/2000/svg">
<path d="M30.842 0.0385742H4.93216C2.70129 0.0385742 0.886719 1.68367 0.886719 3.70585V16.2937C0.886719 18.3159 2.70129 19.961 4.93216 19.961H30.8417C33.0719 19.961 34.8867 18.3159 34.8867 16.2937V3.70585C34.8867 1.68367 33.0719 0.0385742 30.842 0.0385742ZM32.807 16.2937C32.807 17.169 31.9248 17.8813 30.8417 17.8813H4.93216C3.84823 17.8813 2.96643 17.169 2.96643 16.2937V3.70585C2.96643 2.83061 3.84823 2.11829 4.93216 2.11829H30.8417C31.9249 2.11829 32.807 2.83061 32.807 3.70585V16.2937Z" fill="#EEAF2D"/>
<path d="M12.2086 7.31494H10.1289V9.10491H12.2086V7.31494Z" fill="#EEAF2D"/>
<path d="M12.2086 14.4746H10.1289V16.2646H12.2086V14.4746Z" fill="#EEAF2D"/>
<path d="M12.2086 3.73486H10.1289V5.52483H12.2086V3.73486Z" fill="#EEAF2D"/>
<path d="M12.2086 10.895H10.1289V12.6846H12.2086V10.895Z" fill="#EEAF2D"/>
<path d="M21.6659 7.14596C21.6659 5.52314 20.3186 4.19238 18.7117 4.19238C17.0888 4.19238 15.7578 5.50715 15.7578 7.14596C15.7578 8.80172 17.0891 10.0998 18.7117 10.0998C20.3186 10.0998 21.6659 8.78546 21.6659 7.14596ZM17.4296 7.14596C17.4296 6.43186 18.014 5.86413 18.7114 5.86413C19.4088 5.86413 19.9932 6.43227 19.9932 7.14596C19.9932 7.86034 19.4088 8.42807 18.7114 8.42807C18.014 8.42807 17.4296 7.85993 17.4296 7.14596Z" fill="#EEAF2D"/>
<path d="M26.3325 10.0029C24.7097 9.99707 23.3735 11.3073 23.3672 12.9464C23.3616 14.6015 24.6881 15.9052 26.3114 15.9115C27.9186 15.9174 29.2697 14.6068 29.276 12.968C29.2816 11.3446 27.9395 10.0084 26.3325 10.0029ZM26.3215 14.2393C25.624 14.2393 25.04 13.6705 25.04 12.9568C25.04 12.2424 25.6245 11.6747 26.3215 11.6747C27.0196 11.6747 27.6036 12.2428 27.6036 12.9568C27.604 13.6709 27.0196 14.2393 26.3215 14.2393Z" fill="#EEAF2D"/>
<path d="M24.6845 3.72849L18.4141 15.5176L20.2502 16.4942L26.5207 4.70513L24.6845 3.72849Z" fill="#EEAF2D"/>
</svg>
