<svg width="24" height="25" viewBox="0 0 24 25" fill="none" xmlns="http://www.w3.org/2000/svg">
<g clip-path="url(#clip0_338_1500)">
<g clip-path="url(#clip1_338_1500)">
<path d="M8.92969 3.35732L10.5609 6.13232H10.5H7.125C6.08906 6.13232 5.25 5.29326 5.25 4.25732C5.25 3.22139 6.08906 2.38232 7.125 2.38232H7.22812C7.92656 2.38232 8.57812 2.75264 8.92969 3.35732ZM3 4.25732C3 4.93232 3.16406 5.56982 3.45 6.13232H1.5C0.670312 6.13232 0 6.80264 0 7.63232V10.6323C0 11.462 0.670312 12.1323 1.5 12.1323H22.5C23.3297 12.1323 24 11.462 24 10.6323V7.63232C24 6.80264 23.3297 6.13232 22.5 6.13232H20.55C20.8359 5.56982 21 4.93232 21 4.25732C21 1.9792 19.1531 0.132324 16.875 0.132324H16.7719C15.2766 0.132324 13.8891 0.924512 13.1297 2.21357L12 4.14014L10.8703 2.21826C10.1109 0.924512 8.72344 0.132324 7.22812 0.132324H7.125C4.84688 0.132324 3 1.9792 3 4.25732ZM18.75 4.25732C18.75 5.29326 17.9109 6.13232 16.875 6.13232H13.5H13.4391L15.0703 3.35732C15.4266 2.75264 16.0734 2.38232 16.7719 2.38232H16.875C17.9109 2.38232 18.75 3.22139 18.75 4.25732ZM1.5 13.6323V21.8823C1.5 23.1245 2.50781 24.1323 3.75 24.1323H10.5V13.6323H1.5ZM13.5 24.1323H20.25C21.4922 24.1323 22.5 23.1245 22.5 21.8823V13.6323H13.5V24.1323Z" fill="white"/>
</g>
</g>
<defs>
<clipPath id="clip0_338_1500">
<rect width="24" height="24" fill="white" transform="translate(0 0.132324)"/>
</clipPath>
<clipPath id="clip1_338_1500">
<path d="M0 0.132324H24V24.1323H0V0.132324Z" fill="white"/>
</clipPath>
</defs>
</svg>
