<svg width="18" height="25" viewBox="0 0 18 25" fill="none" xmlns="http://www.w3.org/2000/svg">
<g clip-path="url(#clip0_338_1490)">
<g clip-path="url(#clip1_338_1490)">
<path d="M8.14735 0.390186C8.66297 0.0479981 9.33797 0.0479981 9.8536 0.390186L10.688 0.938623C10.9692 1.12144 11.2973 1.2105 11.6302 1.19175L12.6286 1.13081C13.2473 1.09331 13.8286 1.43081 14.1052 1.98394L14.5552 2.87925C14.7052 3.17925 14.9489 3.41831 15.2442 3.56831L16.1489 4.023C16.702 4.29956 17.0395 4.88081 17.002 5.49956L16.9411 6.498C16.9223 6.83081 17.0114 7.16362 17.1942 7.44019L17.7473 8.27456C18.0895 8.79019 18.0895 9.46519 17.7473 9.98081L17.1942 10.8199C17.0114 11.1011 16.9223 11.4292 16.9411 11.7621L17.002 12.7605C17.0395 13.3792 16.702 13.9605 16.1489 14.2371L15.2536 14.6871C14.9536 14.8371 14.7145 15.0808 14.5645 15.3761L14.1098 16.2808C13.8333 16.8339 13.252 17.1714 12.6333 17.1339L11.6348 17.073C11.302 17.0542 10.9692 17.1433 10.6927 17.3261L9.85828 17.8792C9.34266 18.2214 8.66766 18.2214 8.15203 17.8792L7.31297 17.3261C7.03172 17.1433 6.7036 17.0542 6.37078 17.073L5.37235 17.1339C4.7536 17.1714 4.17235 16.8339 3.89578 16.2808L3.44578 15.3855C3.29578 15.0855 3.05203 14.8464 2.75672 14.6964L1.85203 14.2417C1.29891 13.9652 0.961409 13.3839 0.998909 12.7652L1.05985 11.7667C1.0786 11.4339 0.989534 11.1011 0.806721 10.8246L0.258284 9.9855C-0.0839036 9.46987 -0.0839036 8.79487 0.258284 8.27925L0.806721 7.44487C0.989534 7.16362 1.0786 6.8355 1.05985 6.50269L0.998909 5.50425C0.961409 4.8855 1.29891 4.30425 1.85203 4.02769L2.74735 3.57769C3.04735 3.423 3.2911 3.17925 3.4411 2.87925L3.8911 1.98394C4.16766 1.43081 4.74891 1.09331 5.36766 1.13081L6.3661 1.19175C6.69891 1.2105 7.03172 1.12144 7.30828 0.938623L8.14735 0.390186ZM12.7505 9.13237C12.7505 8.13781 12.3554 7.18398 11.6521 6.48072C10.9489 5.77746 9.99503 5.38237 9.00047 5.38237C8.00591 5.38237 7.05208 5.77746 6.34882 6.48072C5.64556 7.18398 5.25047 8.13781 5.25047 9.13237C5.25047 10.1269 5.64556 11.0808 6.34882 11.784C7.05208 12.4873 8.00591 12.8824 9.00047 12.8824C9.99503 12.8824 10.9489 12.4873 11.6521 11.784C12.3554 11.0808 12.7505 10.1269 12.7505 9.13237ZM0.0614089 20.8417L2.08172 16.0371C2.0911 16.0417 2.09578 16.0464 2.10047 16.0558L2.55047 16.9511C3.09891 18.0386 4.23797 18.6996 5.45672 18.6292L6.45516 18.5683C6.46453 18.5683 6.4786 18.5683 6.48797 18.5777L7.32235 19.1308C7.56141 19.2855 7.81453 19.4074 8.07703 19.4917L6.31453 23.6777C6.20672 23.9355 5.96766 24.1089 5.6911 24.1324C5.41453 24.1558 5.14735 24.0292 4.99735 23.7949L3.48797 21.4839L0.858284 21.873C0.591096 21.9105 0.323909 21.8027 0.155159 21.5917C-0.0135911 21.3808 -0.0464036 21.0902 0.0567214 20.8417H0.0614089ZM11.6864 23.673L9.92391 19.4917C10.1864 19.4074 10.4395 19.2902 10.6786 19.1308L11.513 18.5777C11.5223 18.573 11.5317 18.5683 11.5458 18.5683L12.5442 18.6292C13.763 18.6996 14.902 18.0386 15.4505 16.9511L15.9005 16.0558C15.9052 16.0464 15.9098 16.0417 15.9192 16.0371L17.9442 20.8417C18.0473 21.0902 18.0098 21.3761 17.8458 21.5917C17.6817 21.8074 17.4098 21.9152 17.1427 21.873L14.513 21.4839L13.0036 23.7902C12.8536 24.0246 12.5864 24.1511 12.3098 24.1277C12.0333 24.1042 11.7942 23.9261 11.6864 23.673Z" fill="white"/>
</g>
</g>
<defs>
<clipPath id="clip0_338_1490">
<rect width="18" height="24" fill="white" transform="translate(0 0.132324)"/>
</clipPath>
<clipPath id="clip1_338_1490">
<path d="M0 0.132324H18V24.1323H0V0.132324Z" fill="white"/>
</clipPath>
</defs>
</svg>
