<svg width="24" height="25" viewBox="0 0 24 25" fill="none" xmlns="http://www.w3.org/2000/svg">
<path d="M24 24.1323H0V0.132324H24V24.1323Z" stroke="white"/>
<path d="M5.47106 1.7167C5.682 1.43076 6.0195 1.25732 6.37575 1.25732H17.6257C17.982 1.25732 18.3195 1.42607 18.5304 1.7167L23.7804 8.8417C24.0992 9.27295 24.0664 9.86826 23.7101 10.2667L12.8351 22.2667C12.6242 22.5011 12.3195 22.637 12.0007 22.637C11.682 22.637 11.382 22.5011 11.1664 22.2667L0.291375 10.2667C-0.0695626 9.86826 -0.0976876 9.27295 0.221062 8.8417L5.47106 1.7167ZM7.27575 3.58232C7.12106 3.69951 7.07888 3.91045 7.17731 4.07451L9.86794 8.55576L2.96794 9.13232C2.77575 9.14639 2.62575 9.31045 2.62575 9.50732C2.62575 9.7042 2.77575 9.86357 2.96794 9.88232L11.9679 10.6323C11.9867 10.6323 12.0101 10.6323 12.0289 10.6323L21.0289 9.88232C21.2211 9.86826 21.3711 9.7042 21.3711 9.50732C21.3711 9.31045 21.2211 9.15107 21.0289 9.13232L14.1336 8.56045L16.8242 4.0792C16.9226 3.91514 16.8804 3.69951 16.7257 3.58701C16.5711 3.47451 16.3554 3.49326 16.2242 3.63389L12.0007 8.2042L7.77731 3.6292C7.64606 3.48857 7.43044 3.46982 7.27575 3.58232Z" fill="white"/>
</svg>
