<svg width="27" height="25" viewBox="0 0 27 25" fill="none" xmlns="http://www.w3.org/2000/svg">
<g clip-path="url(#clip0_338_1505)">
<path d="M27 24.1323H0V0.132324H27V24.1323Z" stroke="white"/>
<path d="M3 3.13232C1.34531 3.13232 0 4.47764 0 6.13232V9.13232C0 9.54482 0.346875 9.86826 0.735937 10.0042C1.61719 10.3089 2.25 11.1479 2.25 12.1323C2.25 13.1167 1.61719 13.9558 0.735937 14.2604C0.346875 14.3964 0 14.7198 0 15.1323V18.1323C0 19.787 1.34531 21.1323 3 21.1323H24C25.6547 21.1323 27 19.787 27 18.1323V15.1323C27 14.7198 26.6531 14.3964 26.2641 14.2604C25.3828 13.9558 24.75 13.1167 24.75 12.1323C24.75 11.1479 25.3828 10.3089 26.2641 10.0042C26.6531 9.86826 27 9.54482 27 9.13232V6.13232C27 4.47764 25.6547 3.13232 24 3.13232H3ZM6 8.38232V15.8823C6 16.2948 6.3375 16.6323 6.75 16.6323H20.25C20.6625 16.6323 21 16.2948 21 15.8823V8.38232C21 7.96982 20.6625 7.63232 20.25 7.63232H6.75C6.3375 7.63232 6 7.96982 6 8.38232ZM4.5 7.63232C4.5 6.80264 5.17031 6.13232 6 6.13232H21C21.8297 6.13232 22.5 6.80264 22.5 7.63232V16.6323C22.5 17.462 21.8297 18.1323 21 18.1323H6C5.17031 18.1323 4.5 17.462 4.5 16.6323V7.63232Z" fill="white"/>
</g>
<defs>
<clipPath id="clip0_338_1505">
<rect width="27" height="24" fill="white" transform="translate(0 0.132324)"/>
</clipPath>
</defs>
</svg>
