<svg width="25" height="24" viewBox="0 0 25 24" fill="none" xmlns="http://www.w3.org/2000/svg">
<path d="M8.05 1.15321C7.68906 0.28133 6.7375 -0.182732 5.82812 0.0657054L1.70312 1.19071C0.8875 1.41571 0.320312 2.15633 0.320312 3.00008C0.320312 14.597 9.72344 24.0001 21.3203 24.0001C22.1641 24.0001 22.9047 23.4329 23.1297 22.6173L24.2547 18.4923C24.5031 17.5829 24.0391 16.6313 23.1672 16.2704L18.6672 14.3954C17.9031 14.0766 17.0172 14.297 16.4969 14.9391L14.6031 17.2501C11.3031 15.6891 8.63125 13.0173 7.07031 9.71727L9.38125 7.82821C10.0234 7.30321 10.2437 6.42196 9.925 5.65789L8.05 1.15789V1.15321Z" fill="#EEAF2D"/>
</svg>
