<svg width="31" height="24" viewBox="0 0 31 24" fill="none" xmlns="http://www.w3.org/2000/svg">
<path d="M10.2898 1.5C10.4961 0.91406 10.1914 0.271872 9.60547 0.0656221C9.01953 -0.140628 8.37734 0.16406 8.17109 0.749997L7.66953 2.16562L7.20547 0.768747C7.00859 0.178122 6.37109 -0.140628 5.78047 0.0562471C5.18984 0.253122 4.87109 0.890622 5.06797 1.48125L5.45703 2.65312L4.17266 1.71562C3.67109 1.35 2.96797 1.4625 2.60234 1.96406C2.23672 2.46562 2.34922 3.16875 2.85078 3.53437L4.17734 4.5H3.13672C1.89453 4.5 0.886719 5.50781 0.886719 6.75V21.75C0.886719 22.9922 1.89453 24 3.13672 24H10.2898C10.0367 23.5594 9.88672 23.0484 9.88672 22.5V12C9.88672 10.5984 10.8477 9.42187 12.1461 9.09375C12.2305 7.64062 12.9477 6.36562 14.0258 5.52656C13.6227 4.90781 12.9289 4.5 12.1367 4.5H11.0961L12.4227 3.53437C12.9242 3.16875 13.0367 2.46562 12.6711 1.96406C12.3055 1.4625 11.6023 1.35 11.1008 1.71562L9.91016 2.58281L10.2898 1.5ZM17.9258 8.69531L19.3133 10.5H17.0117C16.3883 10.5 15.8867 9.99844 15.8867 9.375C15.8867 8.76093 16.393 8.25 17.0211 8.25C17.3773 8.25 17.7102 8.41406 17.9258 8.69531ZM13.6367 9.375C13.6367 9.76875 13.7023 10.1484 13.8289 10.5H13.6367C12.3945 10.5 11.3867 11.5078 11.3867 12.75V16.5H20.3867V12H21.8867V16.5H30.8867V12.75C30.8867 11.5078 29.8789 10.5 28.6367 10.5H28.4445C28.5711 10.1484 28.6367 9.76875 28.6367 9.375C28.6367 7.50468 27.1133 6 25.2523 6C24.2023 6 23.2086 6.4875 22.5664 7.32187L21.1367 9.17812L19.707 7.32187C19.0648 6.4875 18.0664 6 17.0211 6C15.1602 6 13.6367 7.50468 13.6367 9.375ZM11.3867 21.75C11.3867 22.9922 12.3945 24 13.6367 24H20.3867V18H11.3867V21.75ZM21.8867 24H28.6367C29.8789 24 30.8867 22.9922 30.8867 21.75V18H21.8867V24ZM26.3867 9.375C26.3867 9.99844 25.8852 10.5 25.2617 10.5H22.9602L24.3477 8.69531C24.5633 8.41875 24.8961 8.25 25.2523 8.25C25.8805 8.25 26.3867 8.76093 26.3867 9.375Z" fill="#EEAF2D"/>
</svg>
