<svg width="20" height="20" viewBox="0 0 20 20" fill="none" xmlns="http://www.w3.org/2000/svg">
<g clip-path="url(#clip0_560_3839)">
<path fill-rule="evenodd" clip-rule="evenodd" d="M10 15C12.7614 15 15 12.7614 15 10C15 7.23857 12.7614 5 10 5C7.23857 5 5 7.23857 5 10C5 12.7614 7.23857 15 10 15ZM10 13.3333C11.8409 13.3333 13.3333 11.8409 13.3333 10C13.3333 8.15905 11.8409 6.66667 10 6.66667C8.15905 6.66667 6.66667 8.15905 6.66667 10C6.66667 11.8409 8.15905 13.3333 10 13.3333Z" fill="#EEAF2D"/>
<path d="M15.0013 4.16675C14.5411 4.16675 14.168 4.53985 14.168 5.00008C14.168 5.46031 14.5411 5.83341 15.0013 5.83341C15.4616 5.83341 15.8346 5.46031 15.8346 5.00008C15.8346 4.53985 15.4616 4.16675 15.0013 4.16675Z" fill="#EEAF2D"/>
<path fill-rule="evenodd" clip-rule="evenodd" d="M1.377 3.5633C0.832031 4.63286 0.832031 6.03299 0.832031 8.83325V11.1666C0.832031 13.9668 0.832031 15.367 1.377 16.4365C1.85636 17.3773 2.62126 18.1423 3.56208 18.6216C4.63164 19.1666 6.03177 19.1666 8.83203 19.1666H11.1654C13.9656 19.1666 15.3658 19.1666 16.4353 18.6216C17.3761 18.1423 18.141 17.3773 18.6204 16.4365C19.1654 15.367 19.1654 13.9668 19.1654 11.1666V8.83325C19.1654 6.03299 19.1654 4.63286 18.6204 3.5633C18.141 2.62249 17.3761 1.85759 16.4353 1.37822C15.3658 0.833252 13.9656 0.833252 11.1654 0.833252H8.83203C6.03177 0.833252 4.63164 0.833252 3.56208 1.37822C2.62126 1.85759 1.85636 2.62249 1.377 3.5633ZM11.1654 2.49992H8.83203C7.4044 2.49992 6.43391 2.50122 5.68377 2.5625C4.95307 2.6222 4.5794 2.73041 4.31873 2.86323C3.69152 3.18281 3.18159 3.69274 2.86201 4.31995C2.72919 4.58062 2.62098 4.95429 2.56128 5.68499C2.5 6.43513 2.4987 7.40562 2.4987 8.83325V11.1666C2.4987 12.5943 2.5 13.5647 2.56128 14.3148C2.62098 15.0456 2.72919 15.4193 2.86201 15.6799C3.18159 16.3071 3.69152 16.817 4.31873 17.1366C4.5794 17.2694 4.95307 17.3777 5.68377 17.4373C6.43391 17.4986 7.4044 17.4999 8.83203 17.4999H11.1654C12.593 17.4999 13.5634 17.4986 14.3136 17.4373C15.0444 17.3777 15.418 17.2694 15.6787 17.1366C16.3059 16.817 16.8158 16.3071 17.1354 15.6799C17.2682 15.4193 17.3764 15.0456 17.4361 14.3148C17.4974 13.5647 17.4987 12.5943 17.4987 11.1666V8.83325C17.4987 7.40562 17.4974 6.43513 17.4361 5.68499C17.3764 4.95429 17.2682 4.58062 17.1354 4.31995C16.8158 3.69274 16.3059 3.18281 15.6787 2.86323C15.418 2.73041 15.0444 2.6222 14.3136 2.5625C13.5634 2.50122 12.593 2.49992 11.1654 2.49992Z" fill="#EEAF2D"/>
</g>
<defs>
<clipPath id="clip0_560_3839">
<rect width="20" height="20" fill="white"/>
</clipPath>
</defs>
</svg>
