<svg width="15" height="21" viewBox="0 0 15 21" fill="none" xmlns="http://www.w3.org/2000/svg">
<path d="M8.42578 19.6323C10.4297 17.1245 15 11.0464 15 7.63232C15 3.4917 11.6406 0.132324 7.5 0.132324C3.35938 0.132324 0 3.4917 0 7.63232C0 11.0464 4.57031 17.1245 6.57422 19.6323C7.05469 20.23 7.94531 20.23 8.42578 19.6323ZM7.5 5.13232C8.16304 5.13232 8.79893 5.39572 9.26777 5.86456C9.73661 6.3334 10 6.96928 10 7.63232C10 8.29537 9.73661 8.93125 9.26777 9.40009C8.79893 9.86893 8.16304 10.1323 7.5 10.1323C6.83696 10.1323 6.20107 9.86893 5.73223 9.40009C5.26339 8.93125 5 8.29537 5 7.63232C5 6.96928 5.26339 6.3334 5.73223 5.86456C6.20107 5.39572 6.83696 5.13232 7.5 5.13232Z" fill="black"/>
</svg>
