<svg width="28" height="24" viewBox="0 0 28 24" fill="none" xmlns="http://www.w3.org/2000/svg">
<g clip-path="url(#clip0_338_1403)">
<path d="M0.5 4.5H27.5C27.5 2.84531 26.1547 1.5 24.5 1.5H3.5C1.84531 1.5 0.5 2.84531 0.5 4.5ZM0.5 6V19.5C0.5 21.1547 1.84531 22.5 3.5 22.5H24.5C26.1547 22.5 27.5 21.1547 27.5 19.5V6H0.5ZM3.5 18.9984C3.5 17.6156 4.62031 16.5 5.99844 16.5H11.5016C12.8844 16.5 14 17.6203 14 18.9984C14 19.275 13.775 19.5 13.4984 19.5H4.00156C3.725 19.5 3.5 19.275 3.5 18.9984ZM8.75 9C9.54565 9 10.3087 9.31607 10.8713 9.87868C11.4339 10.4413 11.75 11.2044 11.75 12C11.75 12.7956 11.4339 13.5587 10.8713 14.1213C10.3087 14.6839 9.54565 15 8.75 15C7.95435 15 7.19129 14.6839 6.62868 14.1213C6.06607 13.5587 5.75 12.7956 5.75 12C5.75 11.2044 6.06607 10.4413 6.62868 9.87868C7.19129 9.31607 7.95435 9 8.75 9ZM17 9.75C17 9.3375 17.3375 9 17.75 9H23.75C24.1625 9 24.5 9.3375 24.5 9.75C24.5 10.1625 24.1625 10.5 23.75 10.5H17.75C17.3375 10.5 17 10.1625 17 9.75ZM17 12.75C17 12.3375 17.3375 12 17.75 12H23.75C24.1625 12 24.5 12.3375 24.5 12.75C24.5 13.1625 24.1625 13.5 23.75 13.5H17.75C17.3375 13.5 17 13.1625 17 12.75ZM17 15.75C17 15.3375 17.3375 15 17.75 15H23.75C24.1625 15 24.5 15.3375 24.5 15.75C24.5 16.1625 24.1625 16.5 23.75 16.5H17.75C17.3375 16.5 17 16.1625 17 15.75Z" fill="#A1A1A1"/>
</g>
<defs>
<clipPath id="clip0_338_1403">
<path d="M0.5 0H27.5V24H0.5V0Z" fill="white"/>
</clipPath>
</defs>
</svg>
