<svg width="17" height="16" viewBox="0 0 17 16" fill="none" xmlns="http://www.w3.org/2000/svg">
<path d="M13.3516 6.5C13.3516 7.93437 12.8859 9.25938 12.1016 10.3344L16.0578 14.2937C16.4484 14.6844 16.4484 15.3188 16.0578 15.7094C15.6672 16.1 15.0328 16.1 14.6422 15.7094L10.6859 11.75C9.61094 12.5375 8.28594 13 6.85156 13C3.26094 13 0.351562 10.0906 0.351562 6.5C0.351562 2.90937 3.26094 0 6.85156 0C10.4422 0 13.3516 2.90937 13.3516 6.5ZM6.85156 11C7.44251 11 8.02767 10.8836 8.57364 10.6575C9.1196 10.4313 9.61568 10.0998 10.0335 9.68198C10.4514 9.26412 10.7829 8.76804 11.009 8.22208C11.2352 7.67611 11.3516 7.09095 11.3516 6.5C11.3516 5.90905 11.2352 5.32389 11.009 4.77792C10.7829 4.23196 10.4514 3.73588 10.0335 3.31802C9.61568 2.90016 9.1196 2.56869 8.57364 2.34254C8.02767 2.1164 7.44251 2 6.85156 2C6.26061 2 5.67545 2.1164 5.12949 2.34254C4.58352 2.56869 4.08745 2.90016 3.66958 3.31802C3.25172 3.73588 2.92025 4.23196 2.6941 4.77792C2.46796 5.32389 2.35156 5.90905 2.35156 6.5C2.35156 7.09095 2.46796 7.67611 2.6941 8.22208C2.92025 8.76804 3.25172 9.26412 3.66958 9.68198C4.08745 10.0998 4.58352 10.4313 5.12949 10.6575C5.67545 10.8836 6.26061 11 6.85156 11Z" fill="#9D9D9D"/>
</svg>
