<svg width="17" height="16" viewBox="0 0 17 16" fill="none" xmlns="http://www.w3.org/2000/svg">
<path d="M15.7144 0.175119C16.03 0.393869 16.1956 0.771994 16.1363 1.15012L14.1363 14.1501C14.0894 14.4532 13.905 14.7189 13.6363 14.8689C13.3675 15.0189 13.0456 15.0376 12.7613 14.9189L9.02376 13.3657L6.88314 15.6814C6.60501 15.9845 6.16751 16.0845 5.78314 15.9345C5.39876 15.7845 5.14876 15.4126 5.14876 15.0001V12.3876C5.14876 12.2626 5.19564 12.1439 5.28001 12.0532L10.5175 6.33762C10.6988 6.14074 10.6925 5.83762 10.505 5.65012C10.3175 5.46262 10.0144 5.45012 9.81751 5.62824L3.46126 11.2751L0.701888 9.89387C0.370638 9.72824 0.158138 9.39699 0.148763 9.02824C0.139388 8.65949 0.333138 8.31574 0.651888 8.13137L14.6519 0.131369C14.9863 -0.0592555 15.3988 -0.0405055 15.7144 0.175119Z" fill="#111827"/>
</svg>
