<svg width="34" height="30" viewBox="0 0 34 30" fill="none" xmlns="http://www.w3.org/2000/svg">
<g clip-path="url(#clip0_560_3604)">
<g clip-path="url(#clip1_560_3604)">
<path d="M0.125 7.5C0.125 5.43164 1.80664 3.75 3.875 3.75H18.875C20.9434 3.75 22.625 5.43164 22.625 7.5V22.5C22.625 24.5684 20.9434 26.25 18.875 26.25H3.875C1.80664 26.25 0.125 24.5684 0.125 22.5V7.5ZM32.8848 5.84766C33.4941 6.17578 33.875 6.80859 33.875 7.5V22.5C33.875 23.1914 33.4941 23.8242 32.8848 24.1523C32.2754 24.4805 31.5371 24.4453 30.957 24.0586L25.332 20.3086L24.5 19.752V18.75V11.25V10.248L25.332 9.69141L30.957 5.94141C31.5312 5.56055 32.2695 5.51953 32.8848 5.84766Z" fill="#A1A1A1"/>
</g>
</g>
<defs>
<clipPath id="clip0_560_3604">
<rect width="33.75" height="30" fill="white" transform="translate(0.125)"/>
</clipPath>
<clipPath id="clip1_560_3604">
<path d="M0.125 0H33.875V30H0.125V0Z" fill="white"/>
</clipPath>
</defs>
</svg>
