<svg width="21" height="22" viewBox="0 0 21 22" fill="none" xmlns="http://www.w3.org/2000/svg">
<g clip-path="url(#clip0_560_3847)">
<path d="M16.804 4.39839C15.1205 2.67573 12.8786 1.72827 10.496 1.72827C5.57812 1.72827 1.57634 5.81343 1.57634 10.8337C1.57634 12.4375 1.98616 14.0042 2.76562 15.3865L1.5 20.1033L6.22902 18.8359C7.5308 19.5619 8.99732 19.9433 10.492 19.9433H10.496C15.4098 19.9433 19.5 15.8582 19.5 10.8378C19.5 8.40562 18.4875 6.12104 16.804 4.39839ZM10.496 18.4093C9.16205 18.4093 7.85625 18.0443 6.7192 17.3552L6.45 17.1912L3.64554 17.9417L4.39286 15.1486L4.21607 14.8615C3.47277 13.6556 3.08304 12.2652 3.08304 10.8337C3.08304 6.66245 6.40982 3.26636 10.5 3.26636C12.4808 3.26636 14.3411 4.05386 15.7393 5.4853C17.1375 6.91675 17.9973 8.81577 17.9933 10.8378C17.9933 15.0132 14.5821 18.4093 10.496 18.4093ZM14.5621 12.741C14.3411 12.6261 13.2442 12.0765 13.0393 12.0027C12.8344 11.9248 12.6857 11.8878 12.5371 12.1175C12.3884 12.3472 11.9625 12.8558 11.8299 13.0117C11.7013 13.1634 11.5688 13.1839 11.3478 13.0691C10.0379 12.4005 9.17813 11.8755 8.31429 10.3621C8.08527 9.96011 8.5433 9.98882 8.9692 9.11929C9.04152 8.96753 9.00536 8.83628 8.94911 8.72144C8.89286 8.60659 8.44688 7.48687 8.26205 7.03159C8.08125 6.58862 7.89643 6.65015 7.75982 6.64194C7.63125 6.63374 7.48259 6.63374 7.33393 6.63374C7.18527 6.63374 6.9442 6.69116 6.73929 6.91675C6.53437 7.14644 5.95982 7.69604 5.95982 8.81577C5.95982 9.9355 6.75938 11.0183 6.86786 11.1701C6.98036 11.3218 8.43884 13.6187 10.6768 14.6072C12.0911 15.2306 12.6455 15.2839 13.3527 15.1773C13.7826 15.1117 14.6705 14.6277 14.8554 14.0945C15.0402 13.5613 15.0402 13.106 14.9839 13.0117C14.9317 12.9091 14.783 12.8517 14.5621 12.741Z" fill="#EEAF2D"/>
</g>
<defs>
<clipPath id="clip0_560_3847">
<path d="M1.5 0.415771H19.5V21.4158H1.5V0.415771Z" fill="white"/>
</clipPath>
</defs>
</svg>
