<svg width="17" height="16" viewBox="0 0 17 16" fill="none" xmlns="http://www.w3.org/2000/svg">
<path d="M8.82031 0C10.942 0 12.9769 0.842855 14.4772 2.34315C15.9775 3.84344 16.8203 5.87827 16.8203 8C16.8203 10.1217 15.9775 12.1566 14.4772 13.6569C12.9769 15.1571 10.942 16 8.82031 16C6.69858 16 4.66375 15.1571 3.16346 13.6569C1.66317 12.1566 0.820313 10.1217 0.820312 8C0.820313 5.87827 1.66317 3.84344 3.16346 2.34315C4.66375 0.842855 6.69858 0 8.82031 0ZM8.07031 3.75V8C8.07031 8.25 8.19531 8.48438 8.40469 8.625L11.4047 10.625C11.7484 10.8562 12.2141 10.7625 12.4453 10.4156C12.6766 10.0687 12.5828 9.60625 12.2359 9.375L9.57031 7.6V3.75C9.57031 3.33437 9.23594 3 8.82031 3C8.40469 3 8.07031 3.33437 8.07031 3.75Z" fill="#EEAF2D"/>
</svg>
