<svg width="13" height="16" viewBox="0 0 13 16" fill="none" xmlns="http://www.w3.org/2000/svg">
<path d="M7.09219 15.6C8.69531 13.5938 12.3516 8.73125 12.3516 6C12.3516 2.6875 9.66406 0 6.35156 0C3.03906 0 0.351562 2.6875 0.351562 6C0.351562 8.73125 4.00781 13.5938 5.61094 15.6C5.99531 16.0781 6.70781 16.0781 7.09219 15.6ZM6.35156 4C6.882 4 7.3907 4.21071 7.76578 4.58579C8.14085 4.96086 8.35156 5.46957 8.35156 6C8.35156 6.53043 8.14085 7.03914 7.76578 7.41421C7.3907 7.78929 6.882 8 6.35156 8C5.82113 8 5.31242 7.78929 4.93735 7.41421C4.56228 7.03914 4.35156 6.53043 4.35156 6C4.35156 5.46957 4.56228 4.96086 4.93735 4.58579C5.31242 4.21071 5.82113 4 6.35156 4Z" fill="#F59E0B"/>
</svg>
