<svg width="17" height="12" viewBox="0 0 17 12" fill="none" xmlns="http://www.w3.org/2000/svg">
<path d="M2.32031 0C1.49219 0 0.820312 0.671875 0.820312 1.5C0.820312 1.97188 1.04219 2.41562 1.42031 2.7L8.22031 7.8C8.57656 8.06563 9.06406 8.06563 9.42031 7.8L16.2203 2.7C16.5984 2.41562 16.8203 1.97188 16.8203 1.5C16.8203 0.671875 16.1484 0 15.3203 0H2.32031ZM0.820312 3.5V10C0.820312 11.1031 1.71719 12 2.82031 12H14.8203C15.9234 12 16.8203 11.1031 16.8203 10V3.5L10.0203 8.6C9.30781 9.13438 8.33281 9.13438 7.62031 8.6L0.820312 3.5Z" fill="#EEAF2D"/>
</svg>
