<svg width="16" height="10" viewBox="0 0 16 10" fill="none" xmlns="http://www.w3.org/2000/svg">
<path fill-rule="evenodd" clip-rule="evenodd" d="M0.422419 0.815234C0.637307 0.608489 0.925486 0.495516 1.22363 0.501141C1.52177 0.506766 1.80548 0.63053 2.01242 0.845234L7.57742 6.75223L13.1424 0.845234C13.2436 0.733717 13.3661 0.643639 13.5027 0.580338C13.6393 0.517036 13.7872 0.4818 13.9377 0.476716C14.0882 0.471632 14.2381 0.496803 14.3787 0.550739C14.5193 0.604675 14.6476 0.686279 14.756 0.790714C14.8645 0.895149 14.9509 1.02029 15.0101 1.15872C15.0693 1.29716 15.1001 1.44606 15.1007 1.59662C15.1013 1.74718 15.0716 1.89633 15.0135 2.03523C14.9554 2.17412 14.87 2.29995 14.7624 2.40523L8.38742 9.15524C8.28247 9.26412 8.15666 9.35072 8.01748 9.40987C7.87831 9.46903 7.72864 9.49951 7.57742 9.49951C7.4262 9.49951 7.27653 9.46903 7.13735 9.40987C6.99818 9.35072 6.87236 9.26412 6.76742 9.15524L0.392419 2.40523C0.185673 2.19035 0.0727001 1.90217 0.0783254 1.60402C0.0839508 1.30588 0.207714 1.02217 0.422419 0.815234Z" fill="black"/>
</svg>
