<svg xmlns="http://www.w3.org/2000/svg" viewBox="0 0 361 382.5"><defs><style>.a,.e{fill:#fff;}.a{stroke:#0071bc;stroke-miterlimit:10;stroke-width:11px;}.b{fill:#0071bc;}.c{fill:#2e3192;}.d{fill:#333;}</style></defs><rect class="a" x="5.5" y="27" width="350" height="350" rx="23.94"/><path class="b" d="M687,443.64v-60.7A23.94,23.94,0,0,1,710.94,359h302.12A23.94,23.94,0,0,1,1037,382.94V444Z" transform="translate(-681.5 -332)"/><rect class="c" x="5.5" y="112" width="350" height="14"/><rect class="d" x="279.5" width="23" height="51" rx="10.02"/><polygon class="b" points="180.5 140.39 214.39 209.06 290.17 220.07 235.34 273.52 248.28 349 180.5 313.37 112.72 349 125.66 273.52 70.83 220.07 146.61 209.06 180.5 140.39"/><path class="e" d="M868.05,569.46q-2.74,2.94-2.74,9.6v11.36h21.74l-2.93,19.4H865.31v84.42H838.08V609.82H824v-19.4h14.1V579.26q0-14.89,9.21-24t26.25-9.11A57.83,57.83,0,0,1,899,552.23l-7.44,17.82a33.27,33.27,0,0,0-14.69-3.52C872.82,566.53,869.88,567.5,868.05,569.46Z" transform="translate(-681.5 -332)"/><rect class="d" x="62.5" width="23" height="51" rx="10.02"/></svg>