<svg xmlns="http://www.w3.org/2000/svg"  viewBox="0 0 100 100" width="100px" height="100px" baseProfile="basic"><path d="M88,17H18c-0.552,0-1,0.448-1,1v70c0,0.552,0.448,1,1,1h35h13h22c0.552,0,1-0.448,1-1V18	C89,17.448,88.552,17,88,17z" opacity=".35"/><rect width="70" height="70" x="15" y="15" fill="#549bd6"/><path fill="#fffeee" d="M68.971,37H75V26H63.995C56.266,26,50,32.266,50,39.995V49h-8v12h8v24h13V61h10l2-12H63v-6.029	C63,39.673,65.673,37,68.971,37z"/><linearGradient id="Xwpj4mSqJglJWp7P0evOma" x1="29.684" x2="70.322" y1="8.926" y2="91.085" gradientUnits="userSpaceOnUse"><stop offset=".004" stop-color="#ffe8c7"/><stop offset=".146" stop-color="#fcddb2"/><stop offset=".542" stop-color="#f3c27c"/><stop offset=".839" stop-color="#edb15a"/><stop offset="1" stop-color="#ebab4d"/></linearGradient><path fill="url(#Xwpj4mSqJglJWp7P0evOma)" d="M85,14H15c-0.552,0-1,0.448-1,1v70c0,0.552,0.448,1,1,1h35h13h22c0.552,0,1-0.448,1-1V15	C86,14.448,85.552,14,85,14z M51,84V61c0-0.552-0.448-1-1-1h-7V50h7c0.552,0,1-0.448,1-1v-9.005C51,32.83,56.83,27,63.996,27H74v9	h-5.029C65.127,36,62,39.127,62,42.971V49c0,0.552,0.448,1,1,1h10.819l-1.667,10H63c-0.552,0-1,0.448-1,1v23H51z M84,84H64V62h9	c0.489,0,0.906-0.354,0.986-0.835l2-12c0.048-0.29-0.033-0.586-0.223-0.811C75.573,48.129,75.294,48,75,48H64v-5.029	C64,40.23,66.23,38,68.971,38H75c0.552,0,1-0.448,1-1V26c0-0.552-0.448-1-1-1H63.996C55.727,25,49,31.727,49,39.995V48h-7	c-0.552,0-1,0.448-1,1v12c0,0.552,0.448,1,1,1h7v22H16V16h68V84z"/></svg>